<?xml version="1.0" encoding="iso-8859-1"?>
<!-- Generator: Adobe Illustrator 16.0.0, SVG Export Plug-In . SVG Version: 6.00 Build 0)  -->
<!DOCTYPE svg PUBLIC "-//W3C//DTD SVG 1.1//EN" "http://www.w3.org/Graphics/SVG/1.1/DTD/svg11.dtd">
<svg version="1.1" id="Capa_1" xmlns="http://www.w3.org/2000/svg" xmlns:xlink="http://www.w3.org/1999/xlink" x="0px" y="0px"
	 width="612px" height="612px" viewBox="0 0 612 612" style="enable-background:new 0 0 612 612;" xml:space="preserve">
<g>
	<g id="Basket">
		<g>
			<path d="M561,187h-86.615c-0.629-1.734-1.274-3.451-2.227-4.998l-85-136C382.636,38.794,374.629,34,365.5,34
				C351.424,34,340,45.407,340,59.5c0,4.964,1.411,9.571,3.859,13.498L415.106,187H196.894l71.247-114.002
				C270.589,69.088,272,64.464,272,59.5c0-14.093-11.424-25.5-25.5-25.5c-9.129,0-17.136,4.794-21.641,12.002l-85,136
				c-0.969,1.547-1.615,3.264-2.244,4.998H51c-28.169,0-51,22.831-51,51v34c0,24.157,16.847,44.268,39.389,49.555l64.668,219.878
				C110.279,562.564,129.846,578,153,578h306c23.154,0,42.721-15.436,48.943-36.567l64.668-219.878
				C595.153,316.285,612,296.157,612,272v-34C612,209.831,589.169,187,561,187z M459,527l-306.017,0.034L92.99,323h426.02L459,527z
				 M561,272H51v-34h510V272z"/>
		</g>
	</g>
</g>
<g>
</g>
<g>
</g>
<g>
</g>
<g>
</g>
<g>
</g>
<g>
</g>
<g>
</g>
<g>
</g>
<g>
</g>
<g>
</g>
<g>
</g>
<g>
</g>
<g>
</g>
<g>
</g>
<g>
</g>
</svg>
